<?xml version="1.0" standalone="yes"?>

<svg version="1.1" viewBox="0.0 0.0 960.0 720.0" fill="none" stroke="none" stroke-linecap="square" stroke-miterlimit="10" xmlns="http://www.w3.org/2000/svg" xmlns:xlink="http://www.w3.org/1999/xlink"><clipPath id="p.0"><path d="m0 0l960.0 0l0 720.0l-960.0 0l0 -720.0z" clip-rule="nonzero"></path></clipPath><g clip-path="url(#p.0)"><path fill="#000000" fill-opacity="0.0" d="m0 0l960.0 0l0 720.0l-960.0 0z" fill-rule="nonzero"></path><path fill="#ffffff" d="m375.54855 77.63517l135.40158 0l0 118.58268l-135.40158 0z" fill-rule="nonzero"></path><path stroke="#ff0000" stroke-width="12.0" stroke-linejoin="round" stroke-linecap="butt" d="m375.54855 77.63517l135.40158 0l0 118.58268l-135.40158 0z" fill-rule="nonzero"></path><path fill="#ffffff" d="m265.3386 297.7091l0 0c0 -5.501343 20.068787 -9.96109 44.82489 -9.96109c24.756104 0 44.82489 4.4597473 44.82489 9.96109l0 39.84436c0 5.5013733 -20.068787 9.96109 -44.82489 9.96109c-24.756104 0 -44.82489 -4.459717 -44.82489 -9.96109z" fill-rule="nonzero"></path><path fill="#000000" fill-opacity="0.0" d="m354.98837 297.7091l0 0c0 5.5013733 -20.068787 9.96109 -44.82489 9.96109c-24.756104 0 -44.82489 -4.459717 -44.82489 -9.96109" fill-rule="nonzero"></path><path fill="#000000" fill-opacity="0.0" d="m265.3386 297.7091l0 0c0 -5.501343 20.068787 -9.96109 44.82489 -9.96109c24.756104 0 44.82489 4.4597473 44.82489 9.96109l0 39.84436c0 5.5013733 -20.068787 9.96109 -44.82489 9.96109c-24.756104 0 -44.82489 -4.459717 -44.82489 -9.96109z" fill-rule="nonzero"></path><path stroke="#0000ff" stroke-width="12.0" stroke-linejoin="round" stroke-linecap="butt" d="m354.98837 297.7091l0 0c0 5.5013733 -20.068787 9.96109 -44.82489 9.96109c-24.756104 0 -44.82489 -4.459717 -44.82489 -9.96109" fill-rule="nonzero"></path><path stroke="#0000ff" stroke-width="12.0" stroke-linejoin="round" stroke-linecap="butt" d="m265.3386 297.7091l0 0c0 -5.501343 20.068787 -9.96109 44.82489 -9.96109c24.756104 0 44.82489 4.4597473 44.82489 9.96109l0 39.84436c0 5.5013733 -20.068787 9.96109 -44.82489 9.96109c-24.756104 0 -44.82489 -4.459717 -44.82489 -9.96109z" fill-rule="nonzero"></path><path fill="#ffffff" d="m568.96326 297.7091l0 0c0 -5.501343 20.068787 -9.96109 44.82489 -9.96109c24.756104 0 44.82489 4.4597473 44.82489 9.96109l0 39.84436c0 5.5013733 -20.068787 9.96109 -44.82489 9.96109c-24.756104 0 -44.82489 -4.459717 -44.82489 -9.96109z" fill-rule="nonzero"></path><path fill="#000000" fill-opacity="0.0" d="m658.61304 297.7091l0 0c0 5.5013733 -20.068787 9.96109 -44.82489 9.96109c-24.756104 0 -44.82489 -4.459717 -44.82489 -9.96109" fill-rule="nonzero"></path><path fill="#000000" fill-opacity="0.0" d="m568.96326 297.7091l0 0c0 -5.501343 20.068787 -9.96109 44.82489 -9.96109c24.756104 0 44.82489 4.4597473 44.82489 9.96109l0 39.84436c0 5.5013733 -20.068787 9.96109 -44.82489 9.96109c-24.756104 0 -44.82489 -4.459717 -44.82489 -9.96109z" fill-rule="nonzero"></path><path stroke="#0000ff" stroke-width="12.0" stroke-linejoin="round" stroke-linecap="butt" d="m658.61304 297.7091l0 0c0 5.5013733 -20.068787 9.96109 -44.82489 9.96109c-24.756104 0 -44.82489 -4.459717 -44.82489 -9.96109" fill-rule="nonzero"></path><path stroke="#0000ff" stroke-width="12.0" stroke-linejoin="round" stroke-linecap="butt" d="m568.96326 297.7091l0 0c0 -5.501343 20.068787 -9.96109 44.82489 -9.96109c24.756104 0 44.82489 4.4597473 44.82489 9.96109l0 39.84436c0 5.5013733 -20.068787 9.96109 -44.82489 9.96109c-24.756104 0 -44.82489 -4.459717 -44.82489 -9.96109z" fill-rule="nonzero"></path><path fill="#000000" fill-opacity="0.0" d="m310.03937 268.01312l54.582672 -59.62204" fill-rule="nonzero"></path><path stroke="#000000" stroke-width="4.0" stroke-linejoin="round" stroke-linecap="butt" d="m320.27612 256.83124l34.10916 -37.258286" fill-rule="evenodd"></path><path fill="#000000" stroke="#000000" stroke-width="4.0" stroke-linecap="butt" d="m311.38986 266.53793c-2.68042 -2.4538574 -2.8640747 -6.616028 -0.4102173 -9.296478c2.453888 -2.68042 6.6160583 -2.8640747 9.296478 -0.4102173c2.6804504 2.453888 2.8641052 6.6160583 0.4102173 9.296478c-2.4538574 2.6804504 -6.6160583 2.8641052 -9.296478 0.4102173z" fill-rule="nonzero"></path><path fill="#000000" stroke="#000000" stroke-width="4.0" stroke-linecap="butt" d="m363.27155 209.86626c2.68042 2.4538727 2.8641052 6.616043 0.4102173 9.296478c-2.4538574 2.6804352 -6.6160583 2.86409 -9.296478 0.4102173c-2.68042 -2.4538727 -2.8640747 -6.6160583 -0.4102173 -9.296478c2.453888 -2.6804352 6.6160583 -2.86409 9.296478 -0.4102173z" fill-rule="nonzero"></path><path fill="#ffffff" d="m391.54855 93.63517l135.40158 0l0 118.58268l-135.40158 0z" fill-rule="nonzero"></path><path stroke="#ff0000" stroke-width="12.0" stroke-linejoin="round" stroke-linecap="butt" d="m391.54855 93.63517l135.40158 0l0 118.58268l-135.40158 0z" fill-rule="nonzero"></path><path fill="#ffffff" d="m407.54855 109.63517l135.40158 0l0 118.58268l-135.40158 0z" fill-rule="nonzero"></path><path stroke="#ff0000" stroke-width="12.0" stroke-linejoin="round" stroke-linecap="butt" d="m407.54855 109.63517l135.40158 0l0 118.58268l-135.40158 0z" fill-rule="nonzero"></path><path fill="#000000" fill-opacity="0.0" d="m617.27295 267.49344l-58.173218 -58.582672" fill-rule="nonzero"></path><path stroke="#000000" stroke-width="4.0" stroke-linejoin="round" stroke-linecap="butt" d="m606.5909 256.73618l-36.809082 -37.06816" fill-rule="evenodd"></path><path fill="#000000" stroke="#000000" stroke-width="4.0" stroke-linecap="butt" d="m615.8637 266.07428c-2.5786133 2.560608 -6.744812 2.5460205 -9.305481 -0.03265381c-2.560608 -2.5786438 -2.5459595 -6.7448425 0.03265381 -9.30545c2.5786743 -2.5606232 6.744873 -2.5460205 9.305481 0.03262329c2.560608 2.5786438 2.5460205 6.7448425 -0.03265381 9.305481z" fill-rule="nonzero"></path><path fill="#000000" stroke="#000000" stroke-width="4.0" stroke-linecap="butt" d="m560.509 210.32993c2.5786743 -2.5606232 6.744873 -2.5460052 9.305481 0.03263855c2.560608 2.5786438 2.5460205 6.7448425 -0.03265381 9.305466c-2.5786133 2.5606232 -6.744812 2.5460052 -9.30542 -0.03263855c-2.560669 -2.5786438 -2.5460205 -6.7448425 0.032592773 -9.305466z" fill-rule="nonzero"></path></g></svg>

